<?xml version="1.0" encoding="utf-8"?>
<!-- Generator: Adobe Illustrator 16.0.0, SVG Export Plug-In . SVG Version: 6.00 Build 0)  -->
<!DOCTYPE svg PUBLIC "-//W3C//DTD SVG 1.1//EN" "http://www.w3.org/Graphics/SVG/1.1/DTD/svg11.dtd">
<svg version="1.1" id="Layer_1" xmlns="http://www.w3.org/2000/svg" xmlns:xlink="http://www.w3.org/1999/xlink" x="0px" y="0px"
	 width="24.432px" height="13.739px" viewBox="0 0 24.432 13.739" enable-background="new 0 0 24.432 13.739" xml:space="preserve">
<g>
	<g>
		<path fill="#000000" d="M12.216,0C5.47,0,0,6.869,0,6.869s5.47,6.87,12.216,6.87s12.215-6.87,12.215-6.87S18.963,0,12.216,0z
			 M16.823,11.035c-1.141,1.261-2.772,2.067-4.607,2.067c-1.834,0-3.467-0.807-4.607-2.067C5.145,9.835,3.143,7.989,2.066,6.869
			c1.076-1.118,3.078-2.965,5.542-4.164c1.141-1.262,2.773-2.069,4.607-2.069c1.83,0,3.46,0.803,4.601,2.059
			c2.473,1.199,4.477,3.05,5.552,4.172C21.293,7.987,19.289,9.834,16.823,11.035z"/>
		<path fill="#000000" d="M16.816,2.695c-1.141-1.256-2.771-2.059-4.601-2.059c-1.834,0-3.467,0.807-4.607,2.069
			c1.413-0.689,2.977-1.166,4.608-1.166C13.848,1.54,15.407,2.012,16.816,2.695z"/>
		<path fill="#000000" d="M7.608,11.035c1.141,1.261,2.773,2.067,4.607,2.067c1.835,0,3.467-0.807,4.607-2.067
			c-1.413,0.688-2.977,1.165-4.607,1.165S9.021,11.723,7.608,11.035z"/>
		<path fill="#000000" d="M16.816,2.695c-1.409-0.683-2.969-1.155-4.6-1.155c-1.631,0-3.195,0.477-4.608,1.166
			c-1,1.105-1.625,2.556-1.625,4.164s0.625,3.06,1.625,4.166c1.413,0.688,2.978,1.165,4.608,1.165s3.194-0.477,4.607-1.165
			c1.001-1.105,1.626-2.558,1.626-4.166C18.449,5.257,17.82,3.802,16.816,2.695z M12.216,11.564c-2.588,0-4.694-2.106-4.694-4.695
			s2.106-4.695,4.694-4.695c2.589,0,4.695,2.106,4.695,4.695S14.805,11.564,12.216,11.564z"/>
		<path fill="#000000" d="M12.216,4.372c-1.376,0-2.496,1.121-2.496,2.497c0,1.376,1.12,2.497,2.496,2.497
			c1.377,0,2.497-1.12,2.497-2.497C14.713,5.493,13.593,4.372,12.216,4.372z"/>
	</g>
</g>
</svg>
