<svg id="Layer_1" xmlns="http://www.w3.org/2000/svg" width="15.381" height="15.382" viewBox="0 0 15.381 15.382"><path fill="#000000" d="M15.381,1.354v3.769h-5.122c-0.753-0.554-1.614-1.03-2.568-1.03c-0.984,0-1.8,0.477-2.568,1.03H0V1.354 C0,0.616,0.615,0,1.354,0h12.674C14.766,0,15.381,0.616,15.381,1.354z M15.381,7.183v6.846c0,0.737-0.615,1.354-1.354,1.354H1.354 C0.615,15.382,0,14.766,0,14.028V7.183h3.769C3.676,7.491,3.646,7.813,3.646,8.137c0,2.245,1.814,4.061,4.045,4.061 s4.045-1.815,4.045-4.061c0-0.323-0.03-0.646-0.123-0.954H15.381z M7.69,5.645c-1.415,0-2.568,1.138-2.568,2.553 s1.153,2.568,2.568,2.568s2.568-1.153,2.568-2.568S9.105,5.645,7.69,5.645z M14.351,1.554c0-0.292-0.231-0.523-0.523-0.523h-2.015 c-0.292,0-0.538,0.231-0.538,0.523v2.014c0,0.293,0.246,0.539,0.538,0.539h2.015c0.292,0,0.523-0.246,0.523-0.539V1.554z"/></svg>