<?xml version="1.0" encoding="utf-8"?>
<!-- Generator: Adobe Illustrator 16.0.0, SVG Export Plug-In . SVG Version: 6.00 Build 0)  -->
<!DOCTYPE svg PUBLIC "-//W3C//DTD SVG 1.1//EN" "http://www.w3.org/Graphics/SVG/1.1/DTD/svg11.dtd">
<svg version="1.1" id="Layer_1" xmlns="http://www.w3.org/2000/svg" xmlns:xlink="http://www.w3.org/1999/xlink" x="0px" y="0px"
	 width="15.381px" height="15.382px" viewBox="0 0 15.381 15.382" enable-background="new 0 0 15.381 15.382" xml:space="preserve">
<path fill="#063462" d="M15.381,14.028c0,0.737-0.615,1.354-1.354,1.354H1.354C0.615,15.382,0,14.766,0,14.028V1.354
	C0,0.616,0.615,0,1.354,0h12.674c0.738,0,1.354,0.616,1.354,1.354V14.028z M12.812,2c-0.568-0.2-1.614-0.231-2.199-0.231
	c-1.707,0-2.414,1.292-2.414,2.845v1.031H7.183V7.69h1.016v5.645h2.061V7.69h2.046V5.645h-2.046V4.429
	c0-0.507,0.861-0.768,1.262-0.768c0.322,0,0.676,0.062,0.984,0.154L12.812,2z"/>
</svg>
