<?xml version="1.0" encoding="utf-8"?>
<!-- Generator: Adobe Illustrator 16.0.0, SVG Export Plug-In . SVG Version: 6.00 Build 0)  -->
<!DOCTYPE svg PUBLIC "-//W3C//DTD SVG 1.1//EN" "http://www.w3.org/Graphics/SVG/1.1/DTD/svg11.dtd">
<svg version="1.1" id="Layer_1" xmlns="http://www.w3.org/2000/svg" xmlns:xlink="http://www.w3.org/1999/xlink" x="0px" y="0px"
	 width="15.381px" height="15.382px" viewBox="0 0 15.381 15.382" enable-background="new 0 0 15.381 15.382" xml:space="preserve">
<path fill="#063462" d="M15.381,1.354v12.675c0,0.737-0.615,1.354-1.354,1.354H1.354C0.615,15.382,0,14.766,0,14.028V1.354
	C0,0.616,0.615,0,1.354,0h12.674C14.766,0,15.381,0.616,15.381,1.354z M13.627,3.999C13.182,4.2,12.72,4.338,12.228,4.384
	c0.508-0.292,0.893-0.784,1.077-1.338c-0.477,0.276-1,0.477-1.554,0.584c-0.462-0.493-1.107-0.768-1.769-0.768
	c-1.354,0-2.445,1.091-2.445,2.445c0,0.185,0.015,0.369,0.061,0.554C5.645,5.753,3.814,4.83,2.568,3.307
	c-0.215,0.369-0.322,0.8-0.322,1.23c0,0.815,0.399,1.569,1.092,2.03c-0.4-0.015-0.77-0.123-1.107-0.308v0.031
	C2.199,7.444,3.045,8.444,4.184,8.675C3.969,8.736,3.753,8.768,3.537,8.768c-0.153,0-0.307-0.016-0.461-0.046
	c0.323,0.984,1.246,1.676,2.276,1.691c-0.861,0.677-1.923,1.046-3.03,1.046c-0.185,0-0.385-0.016-0.568-0.03
	c1.107,0.707,2.414,1.092,3.737,1.092c2.814,0,5.183-1.523,6.321-4.107c0.385-0.892,0.615-1.86,0.615-2.83
	c0-0.108,0-0.215-0.016-0.323C12.889,4.922,13.305,4.492,13.627,3.999z"/>
</svg>
