<?xml version="1.0" encoding="utf-8"?>
<!-- Generator: Adobe Illustrator 16.0.0, SVG Export Plug-In . SVG Version: 6.00 Build 0)  -->
<!DOCTYPE svg PUBLIC "-//W3C//DTD SVG 1.1//EN" "http://www.w3.org/Graphics/SVG/1.1/DTD/svg11.dtd">
<svg version="1.1" id="Layer_1" xmlns="http://www.w3.org/2000/svg" xmlns:xlink="http://www.w3.org/1999/xlink" x="0px" y="0px"
	 width="12px" height="13px" viewBox="0 0 12 13" enable-background="new 0 0 12 13" xml:space="preserve">
<g>
	<path fill="#0276bc" d="M4,5H2V3h2V5z"/>
	<path fill="#0276bc" d="M10,0v1H7V0H5v1H2V0.063H0V13h12V0.063L10,0z M11.063,12.076H1V1.911l10.031,0.029L11.063,12.076z"/>
	<path fill="#0276bc" d="M7,5H5V3h2V5z"/>
	<path fill="#0276bc" d="M10,5H8V3h2V5z"/>
	<path fill="#0276bc" d="M4,8H2V6h2V8z"/>
	<path fill="#0276bc" d="M7,8H5V6h2V8z"/>
	<path fill="#0276bc" d="M10,8H8V6h2V8z"/>
	<path fill="#0276bc" d="M4,11H2V9h2V11z"/>
	<path fill="#0276bc" d="M7,11H5V9h2V11z"/>
	<path fill="#0276bc" d="M10,11H8V9h2V11z"/>
</g>
</svg>
