<?xml version="1.0" encoding="utf-8"?>
<!-- Generator: Adobe Illustrator 16.0.0, SVG Export Plug-In . SVG Version: 6.00 Build 0)  -->
<!DOCTYPE svg PUBLIC "-//W3C//DTD SVG 1.1//EN" "http://www.w3.org/Graphics/SVG/1.1/DTD/svg11.dtd">
<svg version="1.1" id="Layer_1" xmlns="http://www.w3.org/2000/svg" xmlns:xlink="http://www.w3.org/1999/xlink" x="0px" y="0px"
	 width="57.556px" height="57.557px" viewBox="0 0 57.556 57.557" enable-background="new 0 0 57.556 57.557" xml:space="preserve">
<path fill="#b0bec5" d="M49.827,21.629"/>
<g>
	<path fill="#b0bec5" d="M28.778,0c3.927,0,7.65,0.754,11.168,2.261c3.517,1.507,6.555,3.586,9.113,6.235
		c2.649,2.559,4.729,5.598,6.235,9.114c1.508,3.518,2.261,7.242,2.261,11.168c0,3.929-0.753,7.652-2.261,11.168
		c-1.507,3.52-3.586,6.557-6.235,9.113c-2.559,2.651-5.597,4.728-9.113,6.236c-3.518,1.507-7.241,2.261-11.168,2.261
		c-4.021,0-7.767-0.754-11.237-2.261c-3.473-1.509-6.532-3.585-9.182-6.236c-2.559-2.557-4.591-5.594-6.098-9.113
		C0.754,36.431,0,32.707,0,28.778c0-3.927,0.754-7.651,2.262-11.168c1.507-3.516,3.539-6.555,6.098-9.114
		c2.649-2.648,5.709-4.728,9.182-6.235C21.012,0.754,24.757,0,28.778,0z M28.778,55.227c3.652,0,7.079-0.686,10.277-2.056
		c3.197-1.371,5.983-3.289,8.359-5.756c2.375-2.374,4.27-5.16,5.688-8.359c1.415-3.197,2.124-6.622,2.124-10.277
		c0-3.653-0.709-7.079-2.124-10.277c-1.418-3.197-3.313-5.983-5.688-8.36c-2.376-2.467-5.162-4.385-8.359-5.755
		C35.857,3.015,32.431,2.33,28.778,2.33c-3.655,0-7.081,0.685-10.278,2.056c-3.198,1.37-6.029,3.289-8.496,5.755
		c-2.377,2.377-4.248,5.163-5.618,8.36C3.015,21.7,2.33,25.125,2.33,28.778c0,3.655,0.685,7.08,2.056,10.277
		c1.37,3.199,3.241,5.985,5.618,8.359c2.467,2.467,5.298,4.385,8.496,5.756C21.697,54.541,25.123,55.227,28.778,55.227z"/>
</g>
<path fill="#b0bec5" d="M35.827,30.629"/>
<rect x="34.264" y="28.778" transform="matrix(-0.7071 -0.7071 0.7071 -0.7071 39.1424 75.77)" fill="#b0bec5" width="2" height="2"/>
<rect x="31.434" y="28.778" transform="matrix(-0.7074 -0.7069 0.7069 -0.7074 34.328 73.7688)" fill="#b0bec5" width="2" height="2"/>
<rect x="28.607" y="28.778" transform="matrix(-0.7071 -0.7071 0.7071 -0.7071 29.4849 71.7697)" fill="#b0bec5" width="2" height="2"/>
<rect x="25.778" y="28.778" transform="matrix(-0.7071 -0.7071 0.7071 -0.7071 24.657 69.7699)" fill="#b0bec5" width="2" height="2"/>
<rect x="22.949" y="28.778" transform="matrix(-0.7074 -0.7069 0.7069 -0.7074 19.8405 67.7709)" fill="#b0bec5" width="2" height="2"/>
<polygon fill="#b0bec5" points="40.778,28.364 42.192,30.778 40.778,31.192 39.364,29.778 "/>
<rect x="36.949" y="28.778" transform="matrix(-0.7074 -0.7069 0.7069 -0.7074 43.7435 77.6669)" fill="#b0bec5" width="2" height="2"/>
<rect x="20.121" y="28.778" transform="matrix(-0.7071 -0.7071 0.7071 -0.7071 14.9995 65.7696)" fill="#b0bec5" width="2" height="2"/>
<rect x="17.293" y="28.778" transform="matrix(-0.7071 -0.7071 0.7071 -0.7071 10.1716 63.7699)" fill="#b0bec5" width="2" height="2"/>
<rect x="17.389" y="33.375" transform="matrix(0.7071 0.7071 -0.7071 0.7071 31.0105 -6.117)" fill="#b0bec5" width="11" height="2"/>
<rect x="17.389" y="24.182" transform="matrix(-0.7071 0.7071 -0.7071 -0.7071 56.8807 26.8035)" fill="#b0bec5" width="11" height="2"/>
</svg>
