<?xml version="1.0" encoding="utf-8"?>
<!-- Generator: Adobe Illustrator 16.0.0, SVG Export Plug-In . SVG Version: 6.00 Build 0)  -->
<!DOCTYPE svg PUBLIC "-//W3C//DTD SVG 1.1//EN" "http://www.w3.org/Graphics/SVG/1.1/DTD/svg11.dtd">
<svg version="1.1" id="Layer_1" xmlns="http://www.w3.org/2000/svg" xmlns:xlink="http://www.w3.org/1999/xlink" x="0px" y="0px"
	 width="57.556px" height="57.557px" viewBox="0 0 57.556 57.557" enable-background="new 0 0 57.556 57.557" xml:space="preserve">
<path fill="#b0bec5" d="M7.729,21.629"/>
<g>
	<path fill="#b0bec5" d="M40.015,2.261c3.473,1.507,6.532,3.586,9.182,6.235c2.559,2.559,4.591,5.598,6.098,9.114
		c1.508,3.518,2.262,7.242,2.262,11.168c0,3.929-0.754,7.652-2.262,11.168c-1.507,3.52-3.539,6.557-6.098,9.113
		c-2.649,2.651-5.709,4.728-9.182,6.236c-3.471,1.507-7.216,2.261-11.237,2.261c-3.927,0-7.65-0.754-11.168-2.261
		c-3.517-1.509-6.555-3.585-9.113-6.236c-2.649-2.557-4.729-5.594-6.235-9.113C0.753,36.431,0,32.707,0,28.778
		c0-3.927,0.753-7.651,2.261-11.168c1.507-3.516,3.586-6.555,6.235-9.114c2.559-2.648,5.597-4.728,9.113-6.235
		C21.127,0.754,24.851,0,28.777,0C32.799,0,36.544,0.754,40.015,2.261z M39.056,53.171c3.198-1.371,6.029-3.289,8.496-5.756
		c2.377-2.374,4.248-5.16,5.618-8.359c1.371-3.197,2.056-6.622,2.056-10.277c0-3.653-0.685-7.079-2.056-10.277
		c-1.37-3.197-3.241-5.983-5.618-8.36c-2.467-2.467-5.298-4.385-8.496-5.755C35.858,3.015,32.433,2.33,28.777,2.33
		c-3.652,0-7.079,0.685-10.277,2.056c-3.197,1.37-5.983,3.289-8.359,5.755c-2.375,2.377-4.27,5.163-5.688,8.36
		C3.038,21.7,2.329,25.125,2.329,28.778c0,3.655,0.709,7.08,2.124,10.277c1.418,3.199,3.313,5.985,5.688,8.359
		c2.376,2.467,5.162,4.385,8.359,5.756c3.198,1.37,6.625,2.056,10.277,2.056C32.433,55.227,35.858,54.541,39.056,53.171z"/>
</g>
<path fill="#b0bec5" d="M21.729,30.629"/>
<rect x="21.292" y="28.778" transform="matrix(0.7071 -0.7071 0.7071 0.7071 -14.5273 24.4847)" fill="#b0bec5" width="2" height="2"/>
<rect x="24.121" y="28.778" transform="matrix(0.7074 -0.7069 0.7069 0.7074 -13.6975 26.4718)" fill="#b0bec5" width="2" height="2"/>
<rect x="26.949" y="28.778" transform="matrix(0.7071 -0.7071 0.7071 0.7071 -12.8703 28.485)" fill="#b0bec5" width="2" height="2"/>
<rect x="29.777" y="28.778" transform="matrix(0.7071 -0.7071 0.7071 0.7071 -12.042 30.4847)" fill="#b0bec5" width="2" height="2"/>
<rect x="32.606" y="28.778" transform="matrix(0.7074 -0.7069 0.7069 0.7074 -11.2143 32.4697)" fill="#b0bec5" width="2" height="2"/>
<polygon fill="#b0bec5" points="16.777,28.364 15.363,30.778 16.777,31.192 18.191,29.778 "/>
<rect x="18.606" y="28.778" transform="matrix(0.7074 -0.7069 0.7069 0.7074 -15.3114 22.5737)" fill="#b0bec5" width="2" height="2"/>
<rect x="35.435" y="28.778" transform="matrix(0.7071 -0.7071 0.7071 0.7071 -10.385 34.485)" fill="#b0bec5" width="2" height="2"/>
<rect x="38.263" y="28.778" transform="matrix(0.7071 -0.7071 0.7071 0.7071 -9.5567 36.4848)" fill="#b0bec5" width="2" height="2"/>
<rect x="29.166" y="33.375" transform="matrix(-0.7071 0.7071 -0.7071 -0.7071 83.4859 34.168)" fill="#b0bec5" width="11" height="2"/>
<rect x="29.166" y="24.182" transform="matrix(0.7071 0.7071 -0.7071 0.7071 27.96 -17.1372)" fill="#b0bec5" width="11" height="2"/>
</svg>
