
<svg version="1.1" id="Layer_1" xmlns="http://www.w3.org/2000/svg" xmlns:xlink="http://www.w3.org/1999/xlink" x="0px" y="0px"
	 width="17.571px" height="17.571px" viewBox="0 0 17.571 17.571" enable-background="new 0 0 17.571 17.571" xml:space="preserve">
<g>
	<g>
		<path fill="#617D8C" d="M17.571,15.726l-1.845,1.846l-4.463-4.464c-1.195,0.808-2.637,1.265-4.077,1.265
			C3.216,14.372,0,11.157,0,7.187S3.216,0,7.187,0s7.187,3.216,7.187,7.187c0,1.441-0.439,2.881-1.266,4.059L17.571,15.726z
			 M7.187,2.39c-2.652,0-4.797,2.144-4.797,4.797c0,2.635,2.161,4.779,4.797,4.779s4.78-2.145,4.78-4.779
			C11.967,4.551,9.822,2.39,7.187,2.39z"/>
	</g>
</g>
</svg>
