
<?xml version="1.0" encoding="utf-8"?>
<!-- Generator: Adobe Illustrator 19.1.0, SVG Export Plug-In . SVG Version: 6.00 Build 0)  -->
<svg version="1.1" id="Слой_1" xmlns="http://www.w3.org/2000/svg" xmlns:xlink="http://www.w3.org/1999/xlink" x="0px" y="0px"
	 viewBox="0 0 17.6 17.6" enable-background="new 0 0 17.6 17.6" xml:space="preserve">
<g>
	<path fill="none" d="M7.2,2.4c-2.7,0-4.8,2.1-4.8,4.8c0,2.6,2.2,4.8,4.8,4.8C9.8,12,12,9.8,12,7.2C12,4.6,9.8,2.4,7.2,2.4z"/>
	<path fill="#ffffff" d="M13.1,11.2c0.8-1.2,1.3-2.6,1.3-4.1c0-4-3.2-7.2-7.2-7.2C3.2,0,0,3.2,0,7.2c0,4,3.2,7.2,7.2,7.2
		c1.4,0,2.9-0.5,4.1-1.3l4.5,4.5l1.8-1.8L13.1,11.2z M7.2,12c-2.6,0-4.8-2.1-4.8-4.8c0-2.7,2.1-4.8,4.8-4.8c2.6,0,4.8,2.2,4.8,4.8
		C12,9.8,9.8,12,7.2,12z"/>
</g>
</svg>
